<?xml version="1.0" encoding="UTF-8" standalone="no"?>
<!DOCTYPE svg PUBLIC "-//W3C//DTD SVG 1.1//EN"
 "http://www.w3.org/Graphics/SVG/1.1/DTD/svg11.dtd">
<!-- Generated by graphviz version 7.0.2 (20221119.0110)
 -->
<!-- Pages: 1 -->
<svg width="236pt" height="153pt"
 viewBox="0.00 0.00 236.00 152.51" xmlns="http://www.w3.org/2000/svg" xmlns:xlink="http://www.w3.org/1999/xlink">
<g id="graph0" class="graph" transform="scale(1 1) rotate(0) translate(4 148.51)">
<polygon fill="white" stroke="none" points="-4,4 -4,-148.51 232,-148.51 232,4 -4,4"/>
<!-- delta_x -->
<g id="node1" class="node">
<title>delta_x</title>
<polygon fill="lightgray" stroke="black" points="42,-144.51 0,-144.51 0,-126.51 42,-126.51 42,-144.51"/>
<text text-anchor="middle" x="21" y="-133.31" font-family="Times New Roman,serif" font-size="9.00">delta_x</text>
</g>
<!-- delta_y_supeior -->
<g id="node2" class="node">
<title>delta_y_supeior</title>
<polygon fill="lightgray" stroke="black" points="135.5,-144.51 60.5,-144.51 60.5,-126.51 135.5,-126.51 135.5,-144.51"/>
<text text-anchor="middle" x="98" y="-133.31" font-family="Times New Roman,serif" font-size="9.00">delta_y_supeior</text>
</g>
<!-- Pular ou Não -->
<g id="node4" class="node">
<title>Pular ou Não</title>
<ellipse fill="lightblue" stroke="black" cx="104" cy="-45.25" rx="45.01" ry="45.01"/>
<text text-anchor="middle" x="104" y="-43.05" font-family="Times New Roman,serif" font-size="9.00">Pular ou Não</text>
</g>
<!-- delta_y_supeior&#45;&gt;Pular ou Não -->
<g id="edge1" class="edge">
<title>delta_y_supeior&#45;&gt;Pular ou Não</title>
<path fill="none" stroke="green" stroke-width="0.61" d="M98.58,-126.05C99,-119.84 99.61,-110.81 100.27,-101.05"/>
<polygon fill="green" stroke="green" stroke-width="0.61" points="103.76,-101.39 100.95,-91.17 96.78,-100.91 103.76,-101.39"/>
</g>
<!-- delta_y_inferior -->
<g id="node3" class="node">
<title>delta_y_inferior</title>
<polygon fill="lightgray" stroke="black" points="228,-144.51 154,-144.51 154,-126.51 228,-126.51 228,-144.51"/>
<text text-anchor="middle" x="191" y="-133.31" font-family="Times New Roman,serif" font-size="9.00">delta_y_inferior</text>
</g>
<!-- delta_y_inferior&#45;&gt;Pular ou Não -->
<g id="edge2" class="edge">
<title>delta_y_inferior&#45;&gt;Pular ou Não</title>
<path fill="none" stroke="green" stroke-width="0.63" d="M182.66,-126.05C173.3,-116.56 157.46,-100.49 142.44,-85.25"/>
<polygon fill="green" stroke="green" stroke-width="0.63" points="145.34,-83.21 135.83,-78.54 140.36,-88.12 145.34,-83.21"/>
</g>
<!-- 34 -->
<g id="node5" class="node">
<title>34</title>
<ellipse fill="white" stroke="black" cx="191" cy="-45.25" rx="18.27" ry="18.27"/>
<text text-anchor="middle" x="191" y="-43.05" font-family="Times New Roman,serif" font-size="9.00">34</text>
</g>
<!-- delta_y_inferior&#45;&gt;34 -->
<g id="edge3" class="edge">
<title>delta_y_inferior&#45;&gt;34</title>
<path fill="none" stroke="red" stroke-width="0.13" d="M191,-126.05C191,-114.15 191,-91.91 191,-73.92"/>
<polygon fill="red" stroke="red" stroke-width="0.13" points="194.5,-74.13 191,-64.13 187.5,-74.13 194.5,-74.13"/>
</g>
</g>
</svg>
