<?xml version="1.0" encoding="UTF-8" standalone="no"?>
<!DOCTYPE svg PUBLIC "-//W3C//DTD SVG 1.1//EN"
 "http://www.w3.org/Graphics/SVG/1.1/DTD/svg11.dtd">
<!-- Generated by graphviz version 7.0.1 (20221109.1506)
 -->
<!-- Pages: 1 -->
<svg width="264pt" height="151pt"
 viewBox="0.00 0.00 264.00 151.10" xmlns="http://www.w3.org/2000/svg" xmlns:xlink="http://www.w3.org/1999/xlink">
<g id="graph0" class="graph" transform="scale(1 1) rotate(0) translate(4 147.1)">
<polygon fill="white" stroke="none" points="-4,4 -4,-147.1 260,-147.1 260,4 -4,4"/>
<!-- delta_x -->
<g id="node1" class="node">
<title>delta_x</title>
<polygon fill="lightgray" stroke="black" points="42,-143.1 0,-143.1 0,-125.1 42,-125.1 42,-143.1"/>
<text text-anchor="middle" x="21" y="-131.9" font-family="Times New Roman,serif" font-size="9.00">delta_x</text>
</g>
<!-- Jump or Not -->
<g id="node5" class="node">
<title>Jump or Not</title>
<ellipse fill="lightblue" stroke="black" cx="47" cy="-44.55" rx="44.6" ry="44.6"/>
<text text-anchor="middle" x="47" y="-42.35" font-family="Times New Roman,serif" font-size="9.00">Jump or Not</text>
</g>
<!-- delta_x&#45;&gt;Jump or Not -->
<g id="edge3" class="edge">
<title>delta_x&#45;&gt;Jump or Not</title>
<path fill="none" stroke="green" stroke-width="0.21" d="M23.49,-124.7C25.48,-118.02 28.44,-108.04 31.6,-97.41"/>
<polygon fill="green" stroke="green" stroke-width="0.21" points="34.95,-98.42 34.44,-87.84 28.24,-96.43 34.95,-98.42"/>
</g>
<!-- delta_y_top -->
<g id="node2" class="node">
<title>delta_y_top</title>
<polygon fill="lightgray" stroke="black" points="163.5,-143.1 102.5,-143.1 102.5,-125.1 163.5,-125.1 163.5,-143.1"/>
<text text-anchor="middle" x="133" y="-131.9" font-family="Times New Roman,serif" font-size="9.00">delta_y_top</text>
</g>
<!-- delta_y_bottom -->
<g id="node3" class="node">
<title>delta_y_bottom</title>
<polygon fill="lightgray" stroke="black" points="256,-143.1 182,-143.1 182,-125.1 256,-125.1 256,-143.1"/>
<text text-anchor="middle" x="219" y="-131.9" font-family="Times New Roman,serif" font-size="9.00">delta_y_bottom</text>
</g>
<!-- 1 -->
<g id="node6" class="node">
<title>1</title>
<ellipse fill="white" stroke="black" cx="219" cy="-44.55" rx="14.7" ry="14.7"/>
<text text-anchor="middle" x="219" y="-42.35" font-family="Times New Roman,serif" font-size="9.00">1</text>
</g>
<!-- delta_y_bottom&#45;&gt;1 -->
<g id="edge2" class="edge">
<title>delta_y_bottom&#45;&gt;1</title>
<path fill="none" stroke="red" stroke-width="0.17" d="M219,-124.7C219,-112.17 219,-88.07 219,-69.74"/>
<polygon fill="red" stroke="red" stroke-width="0.17" points="222.5,-69.75 219,-59.75 215.5,-69.75 222.5,-69.75"/>
</g>
<!-- &#45;4 -->
<g id="node4" class="node">
<title>&#45;4</title>
<polygon fill="lightgray" stroke="black" points="84,-143.1 60,-143.1 60,-125.1 84,-125.1 84,-143.1"/>
<text text-anchor="middle" x="72" y="-131.9" font-family="Times New Roman,serif" font-size="9.00">&#45;4</text>
</g>
<!-- &#45;4&#45;&gt;Jump or Not -->
<g id="edge1" class="edge">
<title>&#45;4&#45;&gt;Jump or Not</title>
<path fill="none" stroke="green" stroke-width="0.54" d="M69.6,-124.7C67.73,-118.15 64.96,-108.44 61.99,-98.05"/>
<polygon fill="green" stroke="green" stroke-width="0.54" points="65.44,-97.39 59.33,-88.73 58.71,-99.31 65.44,-97.39"/>
</g>
</g>
</svg>
