<?xml version="1.0" encoding="UTF-8" standalone="no"?>
<!DOCTYPE svg PUBLIC "-//W3C//DTD SVG 1.1//EN"
 "http://www.w3.org/Graphics/SVG/1.1/DTD/svg11.dtd">
<!-- Generated by graphviz version 7.0.1 (20221109.1506)
 -->
<!-- Pages: 1 -->
<svg width="222pt" height="151pt"
 viewBox="0.00 0.00 222.00 151.10" xmlns="http://www.w3.org/2000/svg" xmlns:xlink="http://www.w3.org/1999/xlink">
<g id="graph0" class="graph" transform="scale(1 1) rotate(0) translate(4 147.1)">
<polygon fill="white" stroke="none" points="-4,4 -4,-147.1 218,-147.1 218,4 -4,4"/>
<!-- delta_x -->
<g id="node1" class="node">
<title>delta_x</title>
<polygon fill="lightgray" stroke="black" points="42,-143.1 0,-143.1 0,-125.1 42,-125.1 42,-143.1"/>
<text text-anchor="middle" x="21" y="-131.9" font-family="Times New Roman,serif" font-size="9.00">delta_x</text>
</g>
<!-- Jump or Not -->
<g id="node4" class="node">
<title>Jump or Not</title>
<ellipse fill="lightblue" stroke="black" cx="91" cy="-44.55" rx="44.6" ry="44.6"/>
<text text-anchor="middle" x="91" y="-42.35" font-family="Times New Roman,serif" font-size="9.00">Jump or Not</text>
</g>
<!-- delta_x&#45;&gt;Jump or Not -->
<g id="edge1" class="edge">
<title>delta_x&#45;&gt;Jump or Not</title>
<path fill="none" stroke="green" stroke-width="0.13" d="M27.71,-124.7C34.64,-116.03 45.99,-101.84 57.18,-87.85"/>
<polygon fill="green" stroke="green" stroke-width="0.13" points="59.71,-90.28 63.22,-80.29 54.24,-85.91 59.71,-90.28"/>
</g>
<!-- delta_y_top -->
<g id="node2" class="node">
<title>delta_y_top</title>
<polygon fill="lightgray" stroke="black" points="121.5,-143.1 60.5,-143.1 60.5,-125.1 121.5,-125.1 121.5,-143.1"/>
<text text-anchor="middle" x="91" y="-131.9" font-family="Times New Roman,serif" font-size="9.00">delta_y_top</text>
</g>
<!-- delta_y_top&#45;&gt;Jump or Not -->
<g id="edge2" class="edge">
<title>delta_y_top&#45;&gt;Jump or Not</title>
<path fill="none" stroke="green" stroke-width="0.2" d="M91,-124.7C91,-118.54 91,-109.58 91,-99.89"/>
<polygon fill="green" stroke="green" stroke-width="0.2" points="94.5,-99.92 91,-89.92 87.5,-99.92 94.5,-99.92"/>
</g>
<!-- delta_y_bottom -->
<g id="node3" class="node">
<title>delta_y_bottom</title>
<polygon fill="lightgray" stroke="black" points="214,-143.1 140,-143.1 140,-125.1 214,-125.1 214,-143.1"/>
<text text-anchor="middle" x="177" y="-131.9" font-family="Times New Roman,serif" font-size="9.00">delta_y_bottom</text>
</g>
<!-- delta_y_bottom&#45;&gt;Jump or Not -->
<g id="edge3" class="edge">
<title>delta_y_bottom&#45;&gt;Jump or Not</title>
<path fill="none" stroke="green" stroke-width="0.29" d="M168.75,-124.7C159.5,-115.29 143.85,-99.35 129,-84.23"/>
<polygon fill="green" stroke="green" stroke-width="0.29" points="131.62,-81.9 122.11,-77.22 126.63,-86.81 131.62,-81.9"/>
</g>
</g>
</svg>
