<?xml version="1.0" encoding="UTF-8" standalone="no"?>
<!DOCTYPE svg PUBLIC "-//W3C//DTD SVG 1.1//EN"
 "http://www.w3.org/Graphics/SVG/1.1/DTD/svg11.dtd">
<!-- Generated by graphviz version 7.0.2 (20221119.0110)
 -->
<!-- Pages: 1 -->
<svg width="236pt" height="153pt"
 viewBox="0.00 0.00 236.00 152.51" xmlns="http://www.w3.org/2000/svg" xmlns:xlink="http://www.w3.org/1999/xlink">
<g id="graph0" class="graph" transform="scale(1 1) rotate(0) translate(4 148.51)">
<polygon fill="white" stroke="none" points="-4,4 -4,-148.51 232,-148.51 232,4 -4,4"/>
<!-- delta_x -->
<g id="node1" class="node">
<title>delta_x</title>
<polygon fill="lightgray" stroke="black" points="42,-144.51 0,-144.51 0,-126.51 42,-126.51 42,-144.51"/>
<text text-anchor="middle" x="21" y="-133.31" font-family="Times New Roman,serif" font-size="9.00">delta_x</text>
</g>
<!-- delta_y_supeior -->
<g id="node2" class="node">
<title>delta_y_supeior</title>
<polygon fill="lightgray" stroke="black" points="135.5,-144.51 60.5,-144.51 60.5,-126.51 135.5,-126.51 135.5,-144.51"/>
<text text-anchor="middle" x="98" y="-133.31" font-family="Times New Roman,serif" font-size="9.00">delta_y_supeior</text>
</g>
<!-- Pular ou Não -->
<g id="node4" class="node">
<title>Pular ou Não</title>
<ellipse fill="lightblue" stroke="black" cx="144" cy="-45.25" rx="45.01" ry="45.01"/>
<text text-anchor="middle" x="144" y="-43.05" font-family="Times New Roman,serif" font-size="9.00">Pular ou Não</text>
</g>
<!-- delta_y_supeior&#45;&gt;Pular ou Não -->
<g id="edge1" class="edge">
<title>delta_y_supeior&#45;&gt;Pular ou Não</title>
<path fill="none" stroke="green" stroke-width="0.72" d="M102.41,-126.05C106.28,-118.63 112.24,-107.18 118.46,-95.26"/>
<polygon fill="green" stroke="green" stroke-width="0.72" points="121.44,-97.12 122.96,-86.63 115.23,-93.88 121.44,-97.12"/>
</g>
<!-- delta_y_inferior -->
<g id="node3" class="node">
<title>delta_y_inferior</title>
<polygon fill="lightgray" stroke="black" points="228,-144.51 154,-144.51 154,-126.51 228,-126.51 228,-144.51"/>
<text text-anchor="middle" x="191" y="-133.31" font-family="Times New Roman,serif" font-size="9.00">delta_y_inferior</text>
</g>
<!-- delta_y_inferior&#45;&gt;Pular ou Não -->
<g id="edge2" class="edge">
<title>delta_y_inferior&#45;&gt;Pular ou Não</title>
<path fill="none" stroke="green" stroke-width="0.7" d="M186.49,-126.05C182.5,-118.56 176.34,-106.97 169.92,-94.93"/>
<polygon fill="green" stroke="green" stroke-width="0.7" points="173.06,-93.37 165.27,-86.19 166.88,-96.66 173.06,-93.37"/>
</g>
</g>
</svg>
