<?xml version="1.0" encoding="UTF-8" standalone="no"?>
<!DOCTYPE svg PUBLIC "-//W3C//DTD SVG 1.1//EN"
 "http://www.w3.org/Graphics/SVG/1.1/DTD/svg11.dtd">
<!-- Generated by graphviz version 7.0.1 (20221109.1506)
 -->
<!-- Pages: 1 -->
<svg width="262pt" height="225pt"
 viewBox="0.00 0.00 261.50 225.28" xmlns="http://www.w3.org/2000/svg" xmlns:xlink="http://www.w3.org/1999/xlink">
<g id="graph0" class="graph" transform="scale(1 1) rotate(0) translate(4 221.28)">
<polygon fill="white" stroke="none" points="-4,4 -4,-221.28 257.5,-221.28 257.5,4 -4,4"/>
<!-- altura_passaro -->
<g id="node1" class="node">
<title>altura_passaro</title>
<polygon fill="lightgray" stroke="black" points="69,-153.89 0,-153.89 0,-135.89 69,-135.89 69,-153.89"/>
<text text-anchor="middle" x="34.5" y="-142.69" font-family="Times New Roman,serif" font-size="9.00">altura_passaro</text>
</g>
<!-- Pular ou Não -->
<g id="node4" class="node">
<title>Pular ou Não</title>
<ellipse fill="lightblue" stroke="black" cx="120.5" cy="-45.25" rx="45.01" ry="45.01"/>
<text text-anchor="middle" x="120.5" y="-43.05" font-family="Times New Roman,serif" font-size="9.00">Pular ou Não</text>
</g>
<!-- altura_passaro&#45;&gt;Pular ou Não -->
<g id="edge3" class="edge">
<title>altura_passaro&#45;&gt;Pular ou Não</title>
<path fill="none" stroke="green" stroke-width="0.2" d="M41.83,-135.57C51.29,-124.84 68.4,-105.4 84.26,-87.4"/>
<polygon fill="green" stroke="green" stroke-width="0.2" points="86.77,-89.85 90.75,-80.03 81.52,-85.22 86.77,-89.85"/>
</g>
<!-- delta_y_supeior -->
<g id="node2" class="node">
<title>delta_y_supeior</title>
<polygon fill="lightgray" stroke="black" points="158,-217.28 83,-217.28 83,-199.28 158,-199.28 158,-217.28"/>
<text text-anchor="middle" x="120.5" y="-206.08" font-family="Times New Roman,serif" font-size="9.00">delta_y_supeior</text>
</g>
<!-- delta_y_supeior&#45;&gt;Pular ou Não -->
<g id="edge1" class="edge">
<title>delta_y_supeior&#45;&gt;Pular ou Não</title>
<path fill="none" stroke="green" stroke-width="0.53" stroke-dasharray="1,5" d="M119.51,-198.86C118.52,-190.02 117.06,-175.69 116.5,-163.28 115.58,-142.97 115.99,-120.68 116.83,-101.05"/>
<polygon fill="green" stroke="green" stroke-width="0.53" points="120.31,-101.4 117.29,-91.24 113.32,-101.06 120.31,-101.4"/>
</g>
<!-- 38 -->
<g id="node5" class="node">
<title>38</title>
<ellipse fill="white" stroke="black" cx="143.5" cy="-144.89" rx="18.27" ry="18.27"/>
<text text-anchor="middle" x="143.5" y="-142.69" font-family="Times New Roman,serif" font-size="9.00">38</text>
</g>
<!-- delta_y_supeior&#45;&gt;38 -->
<g id="edge4" class="edge">
<title>delta_y_supeior&#45;&gt;38</title>
<path fill="none" stroke="red" stroke-width="0.16" d="M123.6,-199C126.21,-192.03 130.1,-181.67 133.74,-171.94"/>
<polygon fill="red" stroke="red" stroke-width="0.16" points="136.93,-173.39 137.16,-162.8 130.38,-170.94 136.93,-173.39"/>
</g>
<!-- delta_y_inferior -->
<g id="node3" class="node">
<title>delta_y_inferior</title>
<polygon fill="lightgray" stroke="black" points="253.5,-153.89 179.5,-153.89 179.5,-135.89 253.5,-135.89 253.5,-153.89"/>
<text text-anchor="middle" x="216.5" y="-142.69" font-family="Times New Roman,serif" font-size="9.00">delta_y_inferior</text>
</g>
<!-- delta_y_inferior&#45;&gt;Pular ou Não -->
<g id="edge2" class="edge">
<title>delta_y_inferior&#45;&gt;Pular ou Não</title>
<path fill="none" stroke="green" stroke-width="0.56" d="M208.32,-135.57C197.35,-124.41 177.14,-103.86 158.88,-85.29"/>
<polygon fill="green" stroke="green" stroke-width="0.56" points="161.84,-83.31 152.33,-78.63 156.85,-88.21 161.84,-83.31"/>
</g>
<!-- 38&#45;&gt;Pular ou Não -->
<g id="edge5" class="edge">
<title>38&#45;&gt;Pular ou Não</title>
<path fill="none" stroke="green" stroke-width="0.48" d="M139.49,-126.89C137.68,-119.18 135.42,-109.61 133.11,-99.77"/>
<polygon fill="green" stroke="green" stroke-width="0.48" points="136.55,-99.14 130.85,-90.21 129.74,-100.75 136.55,-99.14"/>
</g>
</g>
</svg>
