<?xml version="1.0" encoding="UTF-8" standalone="no"?>
<!DOCTYPE svg PUBLIC "-//W3C//DTD SVG 1.1//EN"
 "http://www.w3.org/Graphics/SVG/1.1/DTD/svg11.dtd">
<!-- Generated by graphviz version 7.0.1 (20221109.1506)
 -->
<!-- Pages: 1 -->
<svg width="267pt" height="153pt"
 viewBox="0.00 0.00 266.75 152.51" xmlns="http://www.w3.org/2000/svg" xmlns:xlink="http://www.w3.org/1999/xlink">
<g id="graph0" class="graph" transform="scale(1 1) rotate(0) translate(4 148.51)">
<polygon fill="white" stroke="none" points="-4,4 -4,-148.51 262.75,-148.51 262.75,4 -4,4"/>
<!-- altura_passaro -->
<g id="node1" class="node">
<title>altura_passaro</title>
<polygon fill="lightgray" stroke="black" points="165.75,-144.51 96.75,-144.51 96.75,-126.51 165.75,-126.51 165.75,-144.51"/>
<text text-anchor="middle" x="131.25" y="-133.31" font-family="Times New Roman,serif" font-size="9.00">altura_passaro</text>
</g>
<!-- Pular ou Não -->
<g id="node4" class="node">
<title>Pular ou Não</title>
<ellipse fill="lightblue" stroke="black" cx="45.25" cy="-45.25" rx="45.01" ry="45.01"/>
<text text-anchor="middle" x="45.25" y="-43.05" font-family="Times New Roman,serif" font-size="9.00">Pular ou Não</text>
</g>
<!-- altura_passaro&#45;&gt;Pular ou Não -->
<g id="edge3" class="edge">
<title>altura_passaro&#45;&gt;Pular ou Não</title>
<path fill="none" stroke="green" stroke-width="0.21" d="M123.01,-126.05C113.83,-116.63 98.35,-100.74 83.6,-85.61"/>
<polygon fill="green" stroke="green" stroke-width="0.21" points="86.16,-83.22 76.68,-78.5 81.15,-88.11 86.16,-83.22"/>
</g>
<!-- 12 -->
<g id="node5" class="node">
<title>12</title>
<ellipse fill="white" stroke="black" cx="131.25" cy="-45.25" rx="18.27" ry="18.27"/>
<text text-anchor="middle" x="131.25" y="-43.05" font-family="Times New Roman,serif" font-size="9.00">12</text>
</g>
<!-- altura_passaro&#45;&gt;12 -->
<g id="edge2" class="edge">
<title>altura_passaro&#45;&gt;12</title>
<path fill="none" stroke="red" stroke-width="0.18" d="M131.25,-126.05C131.25,-114.2 131.25,-92.11 131.25,-74.18"/>
<polygon fill="red" stroke="red" stroke-width="0.18" points="134.75,-74.21 131.25,-64.21 127.75,-74.21 134.75,-74.21"/>
</g>
<!-- delta_y_supeior -->
<g id="node2" class="node">
<title>delta_y_supeior</title>
<polygon fill="lightgray" stroke="black" points="258.75,-144.51 183.75,-144.51 183.75,-126.51 258.75,-126.51 258.75,-144.51"/>
<text text-anchor="middle" x="221.25" y="-133.31" font-family="Times New Roman,serif" font-size="9.00">delta_y_supeior</text>
</g>
<!-- delta_y_inferior -->
<g id="node3" class="node">
<title>delta_y_inferior</title>
<polygon fill="lightgray" stroke="black" points="78.25,-144.51 4.25,-144.51 4.25,-126.51 78.25,-126.51 78.25,-144.51"/>
<text text-anchor="middle" x="41.25" y="-133.31" font-family="Times New Roman,serif" font-size="9.00">delta_y_inferior</text>
</g>
<!-- delta_y_inferior&#45;&gt;Pular ou Não -->
<g id="edge1" class="edge">
<title>delta_y_inferior&#45;&gt;Pular ou Não</title>
<path fill="none" stroke="green" stroke-width="0.53" d="M41.64,-126.05C41.92,-119.9 42.32,-111 42.76,-101.35"/>
<polygon fill="green" stroke="green" stroke-width="0.53" points="46.25,-101.63 43.2,-91.48 39.26,-101.31 46.25,-101.63"/>
</g>
</g>
</svg>
