<?xml version="1.0" encoding="UTF-8" standalone="no"?>
<!DOCTYPE svg PUBLIC "-//W3C//DTD SVG 1.1//EN"
 "http://www.w3.org/Graphics/SVG/1.1/DTD/svg11.dtd">
<!-- Generated by graphviz version 7.0.1 (20221109.1506)
 -->
<!-- Pages: 1 -->
<svg width="310pt" height="244pt"
 viewBox="0.00 0.00 309.50 244.05" xmlns="http://www.w3.org/2000/svg" xmlns:xlink="http://www.w3.org/1999/xlink">
<g id="graph0" class="graph" transform="scale(1 1) rotate(0) translate(4 240.05)">
<polygon fill="white" stroke="none" points="-4,4 -4,-240.05 305.5,-240.05 305.5,4 -4,4"/>
<!-- altura_passaro -->
<g id="node1" class="node">
<title>altura_passaro</title>
<polygon fill="lightgray" stroke="black" points="69,-153.89 0,-153.89 0,-135.89 69,-135.89 69,-153.89"/>
<text text-anchor="middle" x="34.5" y="-142.69" font-family="Times New Roman,serif" font-size="9.00">altura_passaro</text>
</g>
<!-- Pular ou Não -->
<g id="node4" class="node">
<title>Pular ou Não</title>
<ellipse fill="lightblue" stroke="black" cx="143.5" cy="-45.25" rx="45.01" ry="45.01"/>
<text text-anchor="middle" x="143.5" y="-43.05" font-family="Times New Roman,serif" font-size="9.00">Pular ou Não</text>
</g>
<!-- altura_passaro&#45;&gt;Pular ou Não -->
<g id="edge1" class="edge">
<title>altura_passaro&#45;&gt;Pular ou Não</title>
<path fill="none" stroke="green" stroke-width="0.22" d="M43.79,-135.57C56.87,-123.85 81.52,-101.78 103.04,-82.5"/>
<polygon fill="green" stroke="green" stroke-width="0.22" points="105.14,-85.32 110.25,-76.04 100.47,-80.11 105.14,-85.32"/>
</g>
<!-- delta_y_supeior -->
<g id="node2" class="node">
<title>delta_y_supeior</title>
<polygon fill="lightgray" stroke="black" points="169,-226.66 94,-226.66 94,-208.66 169,-208.66 169,-226.66"/>
<text text-anchor="middle" x="131.5" y="-215.46" font-family="Times New Roman,serif" font-size="9.00">delta_y_supeior</text>
</g>
<!-- delta_y_supeior&#45;&gt;Pular ou Não -->
<g id="edge2" class="edge">
<title>delta_y_supeior&#45;&gt;Pular ou Não</title>
<path fill="none" stroke="red" stroke-width="0.23" stroke-dasharray="1,5" d="M128.45,-208.49C124.75,-198.14 118.76,-179.68 116.5,-163.28 114.27,-147.09 113.86,-142.64 116.5,-126.51 118.09,-116.82 120.68,-106.72 123.65,-97.09"/>
<polygon fill="red" stroke="red" stroke-width="0.23" points="126.98,-98.18 126.75,-87.59 120.33,-96.01 126.98,-98.18"/>
</g>
<!-- 3 -->
<g id="node5" class="node">
<title>3</title>
<ellipse fill="white" stroke="black" cx="194.5" cy="-144.89" rx="14.7" ry="14.7"/>
<text text-anchor="middle" x="194.5" y="-142.69" font-family="Times New Roman,serif" font-size="9.00">3</text>
</g>
<!-- delta_y_supeior&#45;&gt;3 -->
<g id="edge4" class="edge">
<title>delta_y_supeior&#45;&gt;3</title>
<path fill="none" stroke="green" stroke-width="0.31" stroke-dasharray="1,5" d="M138.97,-208.27C148.57,-197.49 165.47,-178.5 178.12,-164.3"/>
<polygon fill="green" stroke="green" stroke-width="0.31" points="180.63,-166.74 184.67,-156.94 175.4,-162.08 180.63,-166.74"/>
</g>
<!-- 14 -->
<g id="node7" class="node">
<title>14</title>
<ellipse fill="white" stroke="black" cx="143.5" cy="-144.89" rx="18.27" ry="18.27"/>
<text text-anchor="middle" x="143.5" y="-142.69" font-family="Times New Roman,serif" font-size="9.00">14</text>
</g>
<!-- delta_y_supeior&#45;&gt;14 -->
<g id="edge7" class="edge">
<title>delta_y_supeior&#45;&gt;14</title>
<path fill="none" stroke="green" stroke-width="0.34" d="M132.92,-208.27C134.39,-199.63 136.75,-185.71 138.87,-173.21"/>
<polygon fill="green" stroke="green" stroke-width="0.34" points="142.26,-174.14 140.48,-163.7 135.36,-172.97 142.26,-174.14"/>
</g>
<!-- delta_y_inferior -->
<g id="node3" class="node">
<title>delta_y_inferior</title>
<polygon fill="lightgray" stroke="black" points="301.5,-153.89 227.5,-153.89 227.5,-135.89 301.5,-135.89 301.5,-153.89"/>
<text text-anchor="middle" x="264.5" y="-142.69" font-family="Times New Roman,serif" font-size="9.00">delta_y_inferior</text>
</g>
<!-- delta_y_inferior&#45;&gt;Pular ou Não -->
<g id="edge3" class="edge">
<title>delta_y_inferior&#45;&gt;Pular ou Não</title>
<path fill="none" stroke="green" stroke-width="0.62" d="M254.18,-135.57C239.31,-123.57 210.95,-100.68 186.66,-81.08"/>
<polygon fill="green" stroke="green" stroke-width="0.62" points="188.98,-78.46 179,-74.9 184.58,-83.9 188.98,-78.46"/>
</g>
<!-- 3&#45;&gt;Pular ou Não -->
<g id="edge5" class="edge">
<title>3&#45;&gt;Pular ou Não</title>
<path fill="none" stroke="green" stroke-width="0.62" d="M188.04,-131.53C183.07,-122.01 175.86,-108.21 168.68,-94.47"/>
<polygon fill="green" stroke="green" stroke-width="0.62" points="171.81,-92.9 164.08,-85.65 165.61,-96.14 171.81,-92.9"/>
</g>
<!-- 12 -->
<g id="node6" class="node">
<title>12</title>
<ellipse fill="white" stroke="black" cx="205.5" cy="-217.66" rx="18.27" ry="18.27"/>
<text text-anchor="middle" x="205.5" y="-215.46" font-family="Times New Roman,serif" font-size="9.00">12</text>
</g>
<!-- 12&#45;&gt;3 -->
<g id="edge6" class="edge">
<title>12&#45;&gt;3</title>
<path fill="none" stroke="green" stroke-width="0.53" d="M202.78,-199.17C201.43,-190.46 199.77,-179.79 198.29,-170.29"/>
<polygon fill="green" stroke="green" stroke-width="0.53" points="201.79,-170.01 196.8,-160.66 194.87,-171.08 201.79,-170.01"/>
</g>
<!-- 14&#45;&gt;Pular ou Não -->
<g id="edge8" class="edge">
<title>14&#45;&gt;Pular ou Não</title>
<path fill="none" stroke="green" stroke-width="0.16" d="M143.5,-126.44C143.5,-119.03 143.5,-109.94 143.5,-100.58"/>
<polygon fill="green" stroke="green" stroke-width="0.16" points="147,-100.64 143.5,-90.64 140,-100.64 147,-100.64"/>
</g>
</g>
</svg>
