<?xml version="1.0" encoding="UTF-8" standalone="no"?>
<!DOCTYPE svg PUBLIC "-//W3C//DTD SVG 1.1//EN"
 "http://www.w3.org/Graphics/SVG/1.1/DTD/svg11.dtd">
<!-- Generated by graphviz version 7.0.1 (20221109.1506)
 -->
<!-- Pages: 1 -->
<svg width="310pt" height="164pt"
 viewBox="0.00 0.00 310.35 164.21" xmlns="http://www.w3.org/2000/svg" xmlns:xlink="http://www.w3.org/1999/xlink">
<g id="graph0" class="graph" transform="scale(1 1) rotate(0) translate(4 160.21)">
<polygon fill="white" stroke="none" points="-4,4 -4,-160.21 306.35,-160.21 306.35,4 -4,4"/>
<!-- altura_passaro -->
<g id="node1" class="node">
<title>altura_passaro</title>
<polygon fill="lightgray" stroke="black" points="69,-150.36 0,-150.36 0,-132.36 69,-132.36 69,-150.36"/>
<text text-anchor="middle" x="34.5" y="-139.16" font-family="Times New Roman,serif" font-size="9.00">altura_passaro</text>
</g>
<!-- Pular ou Não -->
<g id="node4" class="node">
<title>Pular ou Não</title>
<ellipse fill="lightblue" stroke="black" cx="124.5" cy="-45.25" rx="45.01" ry="45.01"/>
<text text-anchor="middle" x="124.5" y="-43.05" font-family="Times New Roman,serif" font-size="9.00">Pular ou Não</text>
</g>
<!-- altura_passaro&#45;&gt;Pular ou Não -->
<g id="edge1" class="edge">
<title>altura_passaro&#45;&gt;Pular ou Não</title>
<path fill="none" stroke="green" stroke-width="0.31" d="M42.49,-132.01C52.5,-121.54 70.36,-102.87 86.86,-85.61"/>
<polygon fill="green" stroke="green" stroke-width="0.31" points="89.11,-88.32 93.5,-78.67 84.06,-83.48 89.11,-88.32"/>
</g>
<!-- delta_y_supeior -->
<g id="node2" class="node">
<title>delta_y_supeior</title>
<polygon fill="lightgray" stroke="black" points="162,-150.36 87,-150.36 87,-132.36 162,-132.36 162,-150.36"/>
<text text-anchor="middle" x="124.5" y="-139.16" font-family="Times New Roman,serif" font-size="9.00">delta_y_supeior</text>
</g>
<!-- delta_y_supeior&#45;&gt;Pular ou Não -->
<g id="edge2" class="edge">
<title>delta_y_supeior&#45;&gt;Pular ou Não</title>
<path fill="none" stroke="red" stroke-width="0.17" d="M124.5,-132.01C124.5,-124.55 124.5,-112.94 124.5,-100.65"/>
<polygon fill="red" stroke="red" stroke-width="0.17" points="128,-100.97 124.5,-90.97 121,-100.97 128,-100.97"/>
</g>
<!-- delta_y_inferior -->
<g id="node3" class="node">
<title>delta_y_inferior</title>
<polygon fill="lightgray" stroke="black" points="254.5,-150.36 180.5,-150.36 180.5,-132.36 254.5,-132.36 254.5,-150.36"/>
<text text-anchor="middle" x="217.5" y="-139.16" font-family="Times New Roman,serif" font-size="9.00">delta_y_inferior</text>
</g>
<!-- delta_y_inferior&#45;&gt;Pular ou Não -->
<g id="edge3" class="edge">
<title>delta_y_inferior&#45;&gt;Pular ou Não</title>
<path fill="none" stroke="green" stroke-width="0.8" d="M209.25,-132.01C198.92,-121.55 180.5,-102.92 163.47,-85.69"/>
<polygon fill="green" stroke="green" stroke-width="0.8" points="166.15,-83.42 156.63,-78.77 161.17,-88.34 166.15,-83.42"/>
</g>
<!-- 1 -->
<g id="node5" class="node">
<title>1</title>
<ellipse fill="white" stroke="black" cx="287.5" cy="-141.36" rx="14.7" ry="14.7"/>
<text text-anchor="middle" x="287.5" y="-139.16" font-family="Times New Roman,serif" font-size="9.00">1</text>
</g>
</g>
</svg>
