<?xml version="1.0" encoding="UTF-8" standalone="no"?>
<!DOCTYPE svg PUBLIC "-//W3C//DTD SVG 1.1//EN"
 "http://www.w3.org/Graphics/SVG/1.1/DTD/svg11.dtd">
<!-- Generated by graphviz version 7.0.1 (20221109.1506)
 -->
<!-- Pages: 1 -->
<svg width="256pt" height="218pt"
 viewBox="0.00 0.00 255.50 218.21" xmlns="http://www.w3.org/2000/svg" xmlns:xlink="http://www.w3.org/1999/xlink">
<g id="graph0" class="graph" transform="scale(1 1) rotate(0) translate(4 214.21)">
<polygon fill="white" stroke="none" points="-4,4 -4,-214.21 251.5,-214.21 251.5,4 -4,4"/>
<!-- altura_passaro -->
<g id="node1" class="node">
<title>altura_passaro</title>
<polygon fill="lightgray" stroke="black" points="69,-150.36 0,-150.36 0,-132.36 69,-132.36 69,-150.36"/>
<text text-anchor="middle" x="34.5" y="-139.16" font-family="Times New Roman,serif" font-size="9.00">altura_passaro</text>
</g>
<!-- Pular ou Não -->
<g id="node4" class="node">
<title>Pular ou Não</title>
<ellipse fill="lightblue" stroke="black" cx="118.5" cy="-45.25" rx="45.01" ry="45.01"/>
<text text-anchor="middle" x="118.5" y="-43.05" font-family="Times New Roman,serif" font-size="9.00">Pular ou Não</text>
</g>
<!-- altura_passaro&#45;&gt;Pular ou Não -->
<g id="edge1" class="edge">
<title>altura_passaro&#45;&gt;Pular ou Não</title>
<path fill="none" stroke="green" stroke-width="0.24" d="M41.95,-132.01C51.01,-121.87 66.93,-104.03 81.92,-87.24"/>
<polygon fill="green" stroke="green" stroke-width="0.24" points="84.42,-89.69 88.47,-79.9 79.2,-85.03 84.42,-89.69"/>
</g>
<!-- delta_y_supeior -->
<g id="node2" class="node">
<title>delta_y_supeior</title>
<polygon fill="lightgray" stroke="black" points="156,-210.21 81,-210.21 81,-192.21 156,-192.21 156,-210.21"/>
<text text-anchor="middle" x="118.5" y="-199.01" font-family="Times New Roman,serif" font-size="9.00">delta_y_supeior</text>
</g>
<!-- delta_y_supeior&#45;&gt;Pular ou Não -->
<g id="edge2" class="edge">
<title>delta_y_supeior&#45;&gt;Pular ou Não</title>
<path fill="none" stroke="red" stroke-width="0.14" stroke-dasharray="1,5" d="M118,-191.78C117.51,-182.92 116.78,-168.59 116.5,-156.21 116.09,-138.18 116.26,-118.48 116.63,-100.81"/>
<polygon fill="red" stroke="red" stroke-width="0.14" points="120.12,-100.95 116.86,-90.87 113.13,-100.79 120.12,-100.95"/>
</g>
<!-- 2 -->
<g id="node5" class="node">
<title>2</title>
<ellipse fill="white" stroke="black" cx="140.5" cy="-141.36" rx="14.7" ry="14.7"/>
<text text-anchor="middle" x="140.5" y="-139.16" font-family="Times New Roman,serif" font-size="9.00">2</text>
</g>
<!-- delta_y_supeior&#45;&gt;2 -->
<g id="edge4" class="edge">
<title>delta_y_supeior&#45;&gt;2</title>
<path fill="none" stroke="green" stroke-width="0.42" d="M121.56,-192.16C124.19,-185.23 128.13,-174.88 131.74,-165.4"/>
<polygon fill="green" stroke="green" stroke-width="0.42" points="134.93,-166.85 135.21,-156.26 128.39,-164.36 134.93,-166.85"/>
</g>
<!-- delta_y_inferior -->
<g id="node3" class="node">
<title>delta_y_inferior</title>
<polygon fill="lightgray" stroke="black" points="247.5,-150.36 173.5,-150.36 173.5,-132.36 247.5,-132.36 247.5,-150.36"/>
<text text-anchor="middle" x="210.5" y="-139.16" font-family="Times New Roman,serif" font-size="9.00">delta_y_inferior</text>
</g>
<!-- delta_y_inferior&#45;&gt;Pular ou Não -->
<g id="edge3" class="edge">
<title>delta_y_inferior&#45;&gt;Pular ou Não</title>
<path fill="none" stroke="green" stroke-width="0.75" d="M202.34,-132.01C192.12,-121.55 173.9,-102.92 157.05,-85.69"/>
<polygon fill="green" stroke="green" stroke-width="0.75" points="159.73,-83.42 150.24,-78.72 154.72,-88.31 159.73,-83.42"/>
</g>
<!-- 2&#45;&gt;Pular ou Não -->
<g id="edge5" class="edge">
<title>2&#45;&gt;Pular ou Não</title>
<path fill="none" stroke="green" stroke-width="0.16" d="M137.35,-126.88C135.6,-119.4 133.3,-109.58 130.92,-99.36"/>
<polygon fill="green" stroke="green" stroke-width="0.16" points="134.35,-98.69 128.67,-89.75 127.54,-100.29 134.35,-98.69"/>
</g>
</g>
</svg>
