<?xml version="1.0" encoding="UTF-8" standalone="no"?>
<!DOCTYPE svg PUBLIC "-//W3C//DTD SVG 1.1//EN"
 "http://www.w3.org/Graphics/SVG/1.1/DTD/svg11.dtd">
<!-- Generated by graphviz version 7.0.1 (20221109.1506)
 -->
<!-- Pages: 1 -->
<svg width="263pt" height="153pt"
 viewBox="0.00 0.00 262.50 152.51" xmlns="http://www.w3.org/2000/svg" xmlns:xlink="http://www.w3.org/1999/xlink">
<g id="graph0" class="graph" transform="scale(1 1) rotate(0) translate(4 148.51)">
<polygon fill="white" stroke="none" points="-4,4 -4,-148.51 258.5,-148.51 258.5,4 -4,4"/>
<!-- altura_passaro -->
<g id="node1" class="node">
<title>altura_passaro</title>
<polygon fill="lightgray" stroke="black" points="69,-144.51 0,-144.51 0,-126.51 69,-126.51 69,-144.51"/>
<text text-anchor="middle" x="34.5" y="-133.31" font-family="Times New Roman,serif" font-size="9.00">altura_passaro</text>
</g>
<!-- Pular ou Não -->
<g id="node4" class="node">
<title>Pular ou Não</title>
<ellipse fill="lightblue" stroke="black" cx="124.5" cy="-45.25" rx="45.01" ry="45.01"/>
<text text-anchor="middle" x="124.5" y="-43.05" font-family="Times New Roman,serif" font-size="9.00">Pular ou Não</text>
</g>
<!-- altura_passaro&#45;&gt;Pular ou Não -->
<g id="edge1" class="edge">
<title>altura_passaro&#45;&gt;Pular ou Não</title>
<path fill="none" stroke="green" stroke-width="0.17" d="M43.13,-126.05C52.97,-116.39 69.75,-99.94 85.52,-84.47"/>
<polygon fill="green" stroke="green" stroke-width="0.17" points="87.8,-87.15 92.49,-77.65 82.9,-82.15 87.8,-87.15"/>
</g>
<!-- delta_y_supeior -->
<g id="node2" class="node">
<title>delta_y_supeior</title>
<polygon fill="lightgray" stroke="black" points="162,-144.51 87,-144.51 87,-126.51 162,-126.51 162,-144.51"/>
<text text-anchor="middle" x="124.5" y="-133.31" font-family="Times New Roman,serif" font-size="9.00">delta_y_supeior</text>
</g>
<!-- delta_y_supeior&#45;&gt;Pular ou Não -->
<g id="edge2" class="edge">
<title>delta_y_supeior&#45;&gt;Pular ou Não</title>
<path fill="none" stroke="green" stroke-width="0.11" d="M124.5,-126.05C124.5,-119.77 124.5,-110.62 124.5,-100.73"/>
<polygon fill="green" stroke="green" stroke-width="0.11" points="128,-100.85 124.5,-90.85 121,-100.85 128,-100.85"/>
</g>
<!-- delta_y_inferior -->
<g id="node3" class="node">
<title>delta_y_inferior</title>
<polygon fill="lightgray" stroke="black" points="254.5,-144.51 180.5,-144.51 180.5,-126.51 254.5,-126.51 254.5,-144.51"/>
<text text-anchor="middle" x="217.5" y="-133.31" font-family="Times New Roman,serif" font-size="9.00">delta_y_inferior</text>
</g>
<!-- delta_y_inferior&#45;&gt;Pular ou Não -->
<g id="edge3" class="edge">
<title>delta_y_inferior&#45;&gt;Pular ou Não</title>
<path fill="none" stroke="green" stroke-width="0.44" d="M208.58,-126.05C198.33,-116.32 180.8,-99.69 164.4,-84.11"/>
<polygon fill="green" stroke="green" stroke-width="0.44" points="167.11,-81.87 157.45,-77.52 162.29,-86.95 167.11,-81.87"/>
</g>
</g>
</svg>
