<?xml version="1.0" encoding="UTF-8" standalone="no"?>
<!DOCTYPE svg PUBLIC "-//W3C//DTD SVG 1.1//EN"
 "http://www.w3.org/Graphics/SVG/1.1/DTD/svg11.dtd">
<!-- Generated by graphviz version 7.0.1 (20221109.1506)
 -->
<!-- Pages: 1 -->
<svg width="263pt" height="153pt"
 viewBox="0.00 0.00 263.00 152.51" xmlns="http://www.w3.org/2000/svg" xmlns:xlink="http://www.w3.org/1999/xlink">
<g id="graph0" class="graph" transform="scale(1 1) rotate(0) translate(4 148.51)">
<polygon fill="white" stroke="none" points="-4,4 -4,-148.51 259,-148.51 259,4 -4,4"/>
<!-- altura_passaro -->
<g id="node1" class="node">
<title>altura_passaro</title>
<polygon fill="lightgray" stroke="black" points="69,-144.51 0,-144.51 0,-126.51 69,-126.51 69,-144.51"/>
<text text-anchor="middle" x="34.5" y="-133.31" font-family="Times New Roman,serif" font-size="9.00">altura_passaro</text>
</g>
<!-- Pular ou Não -->
<g id="node4" class="node">
<title>Pular ou Não</title>
<ellipse fill="lightblue" stroke="black" cx="79.5" cy="-45.25" rx="45.01" ry="45.01"/>
<text text-anchor="middle" x="79.5" y="-43.05" font-family="Times New Roman,serif" font-size="9.00">Pular ou Não</text>
</g>
<!-- altura_passaro&#45;&gt;Pular ou Não -->
<g id="edge1" class="edge">
<title>altura_passaro&#45;&gt;Pular ou Não</title>
<path fill="none" stroke="green" stroke-width="0.12" d="M38.81,-126.05C42.67,-118.48 48.66,-106.73 54.87,-94.55"/>
<polygon fill="green" stroke="green" stroke-width="0.12" points="57.9,-96.32 59.32,-85.82 51.66,-93.14 57.9,-96.32"/>
</g>
<!-- delta_y_supeior -->
<g id="node2" class="node">
<title>delta_y_supeior</title>
<polygon fill="lightgray" stroke="black" points="255,-144.51 180,-144.51 180,-126.51 255,-126.51 255,-144.51"/>
<text text-anchor="middle" x="217.5" y="-133.31" font-family="Times New Roman,serif" font-size="9.00">delta_y_supeior</text>
</g>
<!-- delta_y_inferior -->
<g id="node3" class="node">
<title>delta_y_inferior</title>
<polygon fill="lightgray" stroke="black" points="161.5,-144.51 87.5,-144.51 87.5,-126.51 161.5,-126.51 161.5,-144.51"/>
<text text-anchor="middle" x="124.5" y="-133.31" font-family="Times New Roman,serif" font-size="9.00">delta_y_inferior</text>
</g>
<!-- delta_y_inferior&#45;&gt;Pular ou Não -->
<g id="edge2" class="edge">
<title>delta_y_inferior&#45;&gt;Pular ou Não</title>
<path fill="none" stroke="green" stroke-width="0.18" d="M120.19,-126.05C116.33,-118.48 110.34,-106.73 104.13,-94.55"/>
<polygon fill="green" stroke="green" stroke-width="0.18" points="107.38,-93.23 99.72,-85.91 101.14,-96.41 107.38,-93.23"/>
</g>
</g>
</svg>
